<?xml version="1.0" encoding="UTF-8"?>
<svg version="1.1" xmlns="http://www.w3.org/2000/svg" width="256" height="256">
<path d="M0 0 C0.65437068 -0.00297112 1.30874136 -0.00594224 1.98294145 -0.0090034 C4.17990945 -0.01768834 6.37682295 -0.01919849 8.57380676 -0.02069092 C10.14745704 -0.02531933 11.72110619 -0.03034402 13.29475403 -0.03573608 C17.57390225 -0.04886205 21.85303479 -0.05530572 26.1322 -0.05974674 C28.80657331 -0.06267786 31.48094234 -0.06678281 34.15531349 -0.07125092 C42.52529988 -0.08492794 50.89527648 -0.09459292 59.26527327 -0.09845281 C68.92208143 -0.10293066 78.57874785 -0.12046502 88.23551291 -0.1494534 C95.70230625 -0.17108819 103.16905977 -0.18115809 110.63588411 -0.18249393 C115.09404435 -0.1835409 119.55207139 -0.18942549 124.01019859 -0.20731354 C128.20696075 -0.22382474 132.40349002 -0.22593498 136.60027313 -0.21717453 C138.13691393 -0.21640572 139.67356741 -0.2207263 141.21017647 -0.23063278 C148.90923431 -0.27733935 155.50069053 -0.17420339 162.58088684 3.14044189 C164.85963087 3.28106059 166.85222178 3.1030071 169.11213684 2.85528564 C178.14141551 3.89822448 184.22883199 11.13932081 190.27351379 17.25665283 C191.89171435 18.88875504 193.53255034 20.4953565 195.17658997 22.10137939 C206.35918168 33.19703817 206.35918168 33.19703817 206.68244934 41.86309814 C205.52658923 47.53818178 203.8209443 50.62085126 199.48323059 54.45294189 C196.9934284 56.66155492 194.96389284 59.15581842 192.83680725 61.70838928 C191.07463559 63.60814344 189.37586902 65.2014254 187.40431213 66.85704041 C181.3596437 72.07255972 176.83779882 76.17605318 176.10139465 84.51080322 C176.05113467 87.31885076 176.16181709 90.10495788 176.28401184 92.90997314 C176.30245678 94.49754184 176.31409903 96.08520093 176.31971741 97.67286682 C176.34086949 101.20580542 176.39821137 104.73585827 176.47810364 108.26794434 C176.60799383 114.61112267 176.58034881 120.95020673 176.53596497 127.29425049 C176.52453335 129.01345042 176.52453335 129.01345042 176.51287079 130.76738167 C176.49683126 133.13300822 176.48043109 135.49863235 176.46368408 137.864254 C176.42434504 143.91134964 176.40318379 149.95849535 176.38166809 156.00567627 C176.37682152 157.21951933 176.37197495 158.43336239 176.36698151 159.68398857 C176.34311331 165.92985023 176.32889485 172.1755381 176.33039856 178.42144775 C176.33118602 184.57863359 176.30786648 190.73531912 176.26851654 196.89237404 C176.25811741 199.20906131 176.25648712 201.52580663 176.26416779 203.8425045 C176.2738111 207.06045823 176.25258745 210.27687517 176.22444153 213.49468994 C176.23463821 214.42918976 176.2448349 215.36368958 176.25534058 216.32650757 C176.13503346 224.02550657 173.85851844 230.53627393 168.6205101 236.29612255 C159.9266995 244.65992869 150.43285189 244.58188182 139.03620911 244.54449463 C137.46344011 244.55020366 135.89067525 244.55716997 134.31791687 244.56529236 C130.0637296 244.58317988 125.80974909 244.58206376 121.55553555 244.57634997 C117.99697742 244.57325181 114.43845864 244.57935753 110.87990612 244.58538872 C102.48161551 244.59941779 94.08342665 244.59788608 85.68513489 244.58648682 C77.03609516 244.57500626 68.38736554 244.58908385 59.73836666 244.61588329 C52.29776444 244.63807078 44.85725934 244.64467083 37.41662639 244.63880688 C32.97916829 244.6354435 28.54190896 244.63781113 24.10447884 244.65505791 C19.93054109 244.67057379 15.75706129 244.66652043 11.58314133 244.64775276 C10.05659889 244.64407972 8.53002217 244.64713771 7.00351143 244.65763855 C-4.44790509 244.73036298 -13.02771799 243.33668834 -21.41911316 235.14044189 C-26.39095639 228.64942434 -27.71928858 222.87193341 -27.6865387 214.81077576 C-27.69106981 213.98712172 -27.69560092 213.16346769 -27.70026934 212.31485444 C-27.71290032 209.56289315 -27.71129381 206.81113009 -27.7096405 204.05914307 C-27.71562657 202.08273566 -27.72243229 200.10633059 -27.72999573 198.12992859 C-27.74765505 192.76620177 -27.75235109 187.40253878 -27.7536273 182.0387857 C-27.7550495 178.68613698 -27.75932042 175.33350445 -27.76462173 171.98085976 C-27.78312184 160.2800557 -27.79129237 148.5792972 -27.78971863 136.878479 C-27.78851726 125.97895177 -27.80961882 115.07962257 -27.84120595 104.18014544 C-27.86737453 94.81604526 -27.87808568 85.45200974 -27.87680781 76.08787328 C-27.87629835 70.49791044 -27.88197305 64.90812361 -27.90316391 59.31819725 C-27.92255593 54.05926845 -27.922664 48.80068339 -27.90813065 43.54174232 C-27.90604266 41.61528139 -27.91074283 39.68879889 -27.92285156 37.76237488 C-27.99439924 25.58785227 -27.73175819 16.07348899 -19.13395691 6.64434814 C-13.61081357 1.80058918 -7.20174601 0.01824591 0 0 Z " fill="#CBD5DC" transform="translate(40.41911315917969,5.85955810546875)"/>
<path d="M0 0 C3.81296792 3.22263558 7.57297152 6.44689669 11.09936523 9.98583984 C11.81958359 10.70613373 12.53980194 11.42642761 13.28184509 12.16854858 C14.03317215 12.92503693 14.78449921 13.68152527 15.55859375 14.4609375 C16.34774673 15.25150543 17.13689972 16.04207336 17.94996643 16.8565979 C20.44818661 19.36037626 22.94289044 21.86762475 25.4375 24.375 C27.13974208 26.08226248 28.84221373 27.78929609 30.54492188 29.49609375 C34.69927389 33.66141925 38.85054509 37.82979672 43 42 C38.7507125 47.0743445 34.30894515 51.83009549 29.61767578 56.49584961 C28.90478897 57.20888245 28.19190216 57.92191528 27.45741272 58.65655518 C25.12241086 60.99086557 22.78389705 63.3216231 20.4453125 65.65234375 C18.81699116 67.27879819 17.18889182 68.90547491 15.56100464 70.53236389 C11.29220984 74.79735497 7.0204196 79.05933336 2.74798584 83.32067871 C-1.61774903 87.67615322 -5.98062671 92.03448773 -10.34375 96.39257812 C-18.89304882 104.93117747 -27.44551677 113.46659493 -36 122 C-39.27907168 120.4412768 -41.46450075 118.77923626 -44.03417969 116.19287109 C-44.81468689 115.41221283 -45.59519409 114.63155457 -46.39935303 113.82723999 C-47.23178528 112.98448517 -48.06421753 112.14173035 -48.921875 111.2734375 C-49.78186096 110.41062164 -50.64184692 109.54780579 -51.52789307 108.65884399 C-54.2733231 105.90221971 -57.0117169 103.13872201 -59.75 100.375 C-61.61021783 98.50475143 -63.47088946 96.63495411 -65.33203125 94.765625 C-69.89329945 90.1823064 -74.44881011 85.59332522 -79 81 C-77.65323083 77.99976052 -76.16088099 75.91279995 -73.83627319 73.59576416 C-73.185634 72.94237564 -72.53499481 72.28898712 -71.86463928 71.61579895 C-71.15182297 70.91017319 -70.43900665 70.20454742 -69.70458984 69.47753906 C-68.57761436 68.3501255 -68.57761436 68.3501255 -67.4278717 67.19993591 C-64.94360487 64.71706229 -62.45232905 62.2413477 -59.9609375 59.765625 C-58.23700151 58.04541916 -56.51350659 56.3247712 -54.79043579 54.60369873 C-50.25415749 50.07505668 -45.71190506 45.55245285 -41.168396 41.03106689 C-36.53313047 36.41625986 -31.90352137 31.79578604 -27.2734375 27.17578125 C-18.18782914 18.11162268 -9.09609212 9.0536372 0 0 Z " fill="#FECB4D" transform="translate(166,47)"/>
<path d="M0 0 C0.22348446 5.14090673 0.38623366 10.27895598 0.49438477 15.42358398 C0.53948437 17.17082997 0.60078711 18.91773925 0.67895508 20.66381836 C1.31186817 35.1711792 1.31186817 35.1711792 -1.86547852 39.60058594 C-4.1621851 41.38190956 -6.40485011 42.70339041 -9 44 C-10.69453282 45.36632345 -12.38316519 46.74003941 -14.0625 48.125 C-18.69544658 51.93272328 -23.34364079 55.72094169 -28 59.5 C-34.34534789 64.65206584 -40.67830869 69.81891966 -47 75 C-54.01071771 80.74578699 -61.03346408 86.47644027 -68.07666016 92.18237305 C-71.1412289 94.66689146 -74.1992961 97.15682425 -77.22265625 99.69140625 C-90.40473307 110.69762445 -102.35055005 113.13958603 -119.375 114.5625 C-122.00874666 114.7843732 -124.64096619 115.0166392 -127.2734375 115.25390625 C-128.99699463 115.39807983 -128.99699463 115.39807983 -130.75537109 115.54516602 C-134.04026108 116.00564382 -136.88239247 116.89088598 -140 118 C-142.44921875 118.30078125 -142.44921875 118.30078125 -144.6875 118.3125 C-145.43386719 118.32925781 -146.18023437 118.34601563 -146.94921875 118.36328125 C-149.58205977 117.89689227 -150.34046121 117.06550281 -152 115 C-152.16336064 111.9971345 -152.14217532 109.29112796 -151.9375 106.3125 C-151.90978516 105.53455078 -151.88207031 104.75660156 -151.85351562 103.95507812 C-151.50674689 98.09908213 -149.8934782 94.09415175 -147 89 C-141.41602524 89.79771068 -138.15701121 91.49901249 -134.6875 96 C-133 99 -133 99 -133 102 C-122.903596 99.95631702 -113.28270682 96.87637619 -103.625 93.3125 C-102.53268066 92.92723145 -101.44036133 92.54196289 -100.31494141 92.14501953 C-99.25452637 91.7426709 -98.19411133 91.34032227 -97.1015625 90.92578125 C-96.16650879 90.57942627 -95.23145508 90.23307129 -94.26806641 89.8762207 C-83.22378886 83.5356206 -74.27577936 72.38232431 -65.37335205 63.41795158 C-62.7704009 60.79746098 -60.1637929 58.18065837 -57.55615234 55.56483459 C-50.15015422 48.13449493 -42.74998214 40.69836878 -35.35400391 33.25805664 C-30.81445375 28.69181593 -26.27011851 24.13038372 -21.7227478 19.57193184 C-19.99202084 17.83498199 -18.26319552 16.09613522 -16.5362854 14.35539055 C-14.1354426 11.93545813 -11.72861963 9.52163149 -9.3203125 7.10913086 C-8.24660149 6.02227745 -8.24660149 6.02227745 -7.15119934 4.91346741 C-6.49818344 4.26175568 -5.84516754 3.61004395 -5.17236328 2.93858337 C-4.60462189 2.36769958 -4.03688049 1.79681578 -3.45193481 1.20863247 C-2 0 -2 0 0 0 Z " fill="#68767F" transform="translate(216,84)"/>
<path d="M0 0 C5.47313966 4.56147547 10.53954809 9.40741321 15.55859375 14.4609375 C16.34774673 15.25150543 17.13689972 16.04207336 17.94996643 16.8565979 C20.44818661 19.36037626 22.94289044 21.86762475 25.4375 24.375 C27.13974208 26.08226248 28.84221373 27.78929609 30.54492188 29.49609375 C34.69927363 33.66141898 38.85075081 37.82959219 43 42 C40.32388971 44.92604315 38.15423468 46.62842081 34.4375 48 C33.56383789 48.32798584 32.69017578 48.65597168 31.79003906 48.99389648 C30.40896973 49.49191772 30.40896973 49.49191772 29 50 C28.05608398 50.34812744 27.11216797 50.69625488 26.13964844 51.05493164 C23.43060155 52.04860557 20.71611 53.02583448 18 54 C16.76765625 54.45246094 15.5353125 54.90492188 14.265625 55.37109375 C8.45855724 57.42462937 3.15107898 58.58992807 -3 59 C-3.34611328 58.18595703 -3.34611328 58.18595703 -3.69921875 57.35546875 C-5.75983641 52.83514147 -7.2067569 49.98744226 -12 48 C-14.69254991 47.29329272 -14.69254991 47.29329272 -17 47 C-17.66 47.99 -18.32 48.98 -19 50 C-19 49.34 -19 48.68 -19 48 C-19.68102783 48.01571045 -20.36205566 48.0314209 -21.0637207 48.04760742 C-24.14656281 48.10993222 -27.22927244 48.14898258 -30.3125 48.1875 C-31.38435547 48.21263672 -32.45621094 48.23777344 -33.56054688 48.26367188 C-34.58857422 48.27333984 -35.61660156 48.28300781 -36.67578125 48.29296875 C-37.62364502 48.3086792 -38.57150879 48.32438965 -39.5480957 48.34057617 C-42 48 -42 48 -43.80932617 46.70043945 C-45.79949441 43.85821641 -45.35815119 41.34274446 -45 38 C-43.87768555 36.31323242 -43.87768555 36.31323242 -42 35 C-39.08911133 34.56762695 -39.08911133 34.56762695 -35.58203125 34.48828125 C-34.32841797 34.45283203 -33.07480469 34.41738281 -31.78320312 34.38085938 C-29.81770508 34.34702148 -29.81770508 34.34702148 -27.8125 34.3125 C-26.47717987 34.27932334 -25.14189168 34.24483334 -23.80664062 34.20898438 C-20.53806175 34.12638491 -17.26904356 34.06151996 -14 34 C-12.68 29.71 -11.36 25.42 -10 21 C-11.43049683 21.02356567 -11.43049683 21.02356567 -12.88989258 21.04760742 C-16.42886913 21.10191678 -19.96780886 21.13635333 -23.50708008 21.16479492 C-25.03871861 21.17987936 -26.57031398 21.20034978 -28.10180664 21.22631836 C-30.30365654 21.26271847 -32.50493533 21.27972913 -34.70703125 21.29296875 C-35.39150833 21.30845261 -36.07598541 21.32393646 -36.78120422 21.33988953 C-39.61425476 21.34089189 -41.54465978 21.30622565 -43.93237305 19.70043945 C-45.74153587 16.81893497 -45.35252761 14.29025766 -45 11 C-43.71586609 9.30253601 -43.71586609 9.30253601 -42 8 C-39.05815259 7.73832321 -36.3326279 7.65126079 -33.39453125 7.70703125 C-32.55532639 7.71127609 -31.71612152 7.71552094 -30.85148621 7.71989441 C-28.17149755 7.73668536 -25.4922613 7.7743377 -22.8125 7.8125 C-20.99545357 7.82754633 -19.17839535 7.84123482 -17.36132812 7.85351562 C-12.90726224 7.88659018 -8.45375868 7.93837487 -4 8 C-3.71125 7.05125 -3.4225 6.1025 -3.125 5.125 C-2 2 -2 2 0 0 Z " fill="#D89D82" transform="translate(86,127)"/>
<path d="M0 0 C0.97175171 -0.00412399 1.94350342 -0.00824799 2.94470215 -0.01249695 C4.00925125 -0.00171112 5.07380035 0.00907471 6.17060852 0.02018738 C7.29270721 0.0197493 8.41480591 0.01931122 9.57090759 0.01885986 C13.28831749 0.02095371 17.00527914 0.04431348 20.72261047 0.0677948 C23.2966487 0.07338862 25.87069011 0.07765973 28.44473267 0.08065796 C34.53272274 0.09095096 40.6205272 0.11460693 46.70844728 0.14470643 C53.63943834 0.17823082 60.57043709 0.19473149 67.50148904 0.20979273 C81.75887669 0.24115608 96.01612847 0.29392881 110.27339172 0.36076355 C108.85618973 2.05939572 107.42483902 3.74135574 105.96835804 5.40657902 C104.91270539 6.623677 103.88239183 7.86383615 102.89369488 9.13592434 C100.08325561 12.46536023 98.04564556 13.73119512 93.66177368 14.10247803 C91.83629093 14.12886406 90.01014659 14.12237111 88.18476868 14.08952332 C87.18409363 14.09521835 86.18341858 14.10091339 85.15242004 14.10678101 C81.85478009 14.11786859 78.55913571 14.08585499 75.26167297 14.0521698 C72.96815219 14.04859252 70.67462696 14.04723531 68.38110352 14.04800415 C63.58018892 14.04331615 58.77994755 14.01849524 53.97920227 13.97819519 C47.81845461 13.92713927 41.65844442 13.91575493 35.49750996 13.91803074 C30.76464774 13.91721609 26.03194746 13.90078132 21.29913902 13.87902641 C19.02689527 13.86946684 16.75463315 13.86356429 14.48237038 13.86134529 C11.31253723 13.8548585 8.14349504 13.82863859 4.97383118 13.79655457 C4.03091721 13.79791412 3.08800323 13.79927368 2.11651611 13.80067444 C0.82334976 13.78148201 0.82334976 13.78148201 -0.49594116 13.76190186 C-1.61943985 13.75436056 -1.61943985 13.75436056 -2.76563549 13.74666691 C-5.30601701 13.24674066 -6.19345326 12.42321735 -7.72660828 10.36076355 C-8.37992379 4.26315212 -8.37992379 4.26315212 -6.49858379 1.66456127 C-4.19536518 -0.03011856 -2.84589823 -0.00931046 0 0 Z " fill="#99AAB4" transform="translate(48.72660827636719,53.63923645019531)"/>
<path d="M0 0 C6.1454361 3.77970087 11.03807932 8.63083993 16.11450195 13.68896484 C17.68193433 15.24447666 19.26707475 16.78031688 20.85351562 18.31640625 C31.77845996 29.06102272 31.77845996 29.06102272 32.1015625 37.72265625 C30.74806188 44.36812243 28.13101531 47.69177556 23 52 C21.99088895 52.99080518 20.98784328 53.9879893 20 55 C19.74852203 54.26054642 19.49704407 53.52109283 19.23794556 52.75923157 C17.9026856 49.78309792 16.50086398 48.13795239 14.19287109 45.85229492 C13.41221283 45.07186325 12.63155457 44.29143158 11.82723999 43.48735046 C10.98448517 42.6600795 10.14173035 41.83280853 9.2734375 40.98046875 C7.97921371 39.69261223 7.97921371 39.69261223 6.65884399 38.3787384 C3.90452835 35.64120007 1.13995916 32.91428371 -1.625 30.1875 C-3.49547706 28.3320709 -5.36527712 26.47595905 -7.234375 24.61914062 C-11.81509376 20.07147871 -16.40427257 15.53249137 -21 11 C-19.43906841 7.6804906 -17.86067942 5.71466148 -15.0625 3.3125 C-14.37285156 2.71050781 -13.68320313 2.10851562 -12.97265625 1.48828125 C-8.92681255 -1.56412756 -4.69774816 -1.3574929 0 0 Z " fill="#E9596E" transform="translate(215,10)"/>
<path d="M0 0 C1.28812843 -0.00065712 1.28812843 -0.00065712 2.60227966 -0.00132751 C5.4431729 0.00076394 8.28347733 0.02411174 11.12426758 0.04760742 C13.09295835 0.05320211 15.06165329 0.05747281 17.03034973 0.06047058 C22.21393347 0.07192937 27.39726534 0.10140551 32.58074951 0.13458252 C37.86930941 0.16526109 43.15790998 0.17897119 48.4465332 0.1940918 C58.82489912 0.22627416 69.20307804 0.27748306 79.58129883 0.34057617 C77.61174814 2.70124331 75.60222375 5.02381625 73.58129883 7.34057617 C73.09724422 7.92637923 72.6131896 8.51218229 72.11446667 9.11573696 C69.4169532 12.16020989 68.10053083 13.23319799 63.9947052 14.08229065 C62.65378342 14.10851656 61.31196289 14.10236395 59.97119141 14.06933594 C59.23386276 14.07503098 58.49653412 14.08072601 57.73686218 14.08659363 C55.31552401 14.09765025 52.89692527 14.06572143 50.47583008 14.03198242 C48.78765683 14.02840345 47.09947753 14.02704829 45.41130066 14.02781677 C41.88140209 14.02313435 38.3524216 13.99835765 34.82275391 13.95800781 C30.29636237 13.90692033 25.77097462 13.89556868 21.2443285 13.89784336 C17.76216536 13.89702825 14.28022203 13.88058689 10.79813194 13.85883904 C9.12876739 13.84928991 7.45937795 13.84337935 5.78998756 13.84115791 C3.46063249 13.83466132 1.13234801 13.808424 -1.19677734 13.77636719 C-1.88722137 13.77772675 -2.57766541 13.7790863 -3.28903198 13.78048706 C-6.08852646 13.72407223 -7.99676156 13.62694637 -10.34663391 12.03208923 C-12.16743658 9.15921771 -11.77088916 6.62766407 -11.41870117 3.34057617 C-8.9180347 -0.91584077 -4.37070073 -0.05805053 0 0 Z " fill="#99AAB4" transform="translate(52.418701171875,80.659423828125)"/>
<path d="M0 0 C1.22103928 0.00022659 2.44207855 0.00045319 3.70011902 0.00068665 C5.67834404 0.02391243 5.67834404 0.02391243 7.6965332 0.04760742 C9.05987583 0.05320374 10.4232245 0.05747367 11.78657532 0.06047058 C15.37225038 0.07191668 18.95756 0.10138131 22.54309082 0.13458252 C26.20291195 0.16528878 29.86279222 0.17897707 33.52270508 0.1940918 C40.70190801 0.22625168 47.88081 0.27744464 55.05981445 0.34057617 C53.64192735 2.0400295 52.20983133 3.72212178 50.7504425 5.38624573 C49.70212535 6.5980783 48.68438732 7.83804779 47.71916199 9.11705017 C45.57268441 11.71942504 44.01227302 13.1299182 40.66543579 13.87014771 C37.71177209 14.08508714 34.82141279 14.09386215 31.8605957 14.03198242 C30.78859421 14.03060776 29.71659271 14.02923309 28.61210632 14.02781677 C26.35360711 14.01877739 24.09512508 13.99520188 21.83691406 13.95800781 C18.37343454 13.90309393 14.9123566 13.89647996 11.44848633 13.8972168 C9.25250191 13.88247489 7.05653383 13.86499148 4.8605957 13.84448242 C3.8230867 13.84114395 2.7855777 13.83780548 1.71662903 13.83436584 C0.75520493 13.81522629 -0.20621918 13.79608673 -1.19677734 13.77636719 C-2.04249802 13.76493179 -2.88821869 13.7534964 -3.75956726 13.74171448 C-6.44768788 13.24721796 -7.3459966 12.53833289 -8.94018555 10.34057617 C-9.58793776 4.29488884 -9.58793776 4.29488884 -7.78800964 1.64311218 C-5.14951175 -0.21677185 -3.21028642 -0.01985744 0 0 Z " fill="#99AAB4" transform="translate(49.940185546875,107.659423828125)"/>
<path d="M0 0 C3.40353022 1.47122616 5.61255749 3.36942513 8.21777344 5.99072266 C9.03832214 6.81142242 9.85887085 7.63212219 10.70428467 8.47769165 C11.58046448 9.36419403 12.45664429 10.25069641 13.359375 11.1640625 C14.26375305 12.07127045 15.1681311 12.97847839 16.09991455 13.91317749 C18.49796458 16.31884419 20.88994618 18.73045736 23.28070068 21.14337158 C25.72385171 23.60702344 28.17271206 26.06498577 30.62109375 28.5234375 C35.41933788 33.34373573 40.21182732 38.16969843 45 43 C44.51391769 43.58058167 44.02783539 44.16116333 43.52702332 44.75933838 C41.24039842 48.1145934 41.52009888 51.55724254 41.48828125 55.484375 C41.47033005 56.29996887 41.45237885 57.11556274 41.43388367 57.95587158 C41.3798198 60.55386223 41.34589818 63.15166958 41.3125 65.75 C41.27932339 67.5143484 41.24483341 69.27867263 41.20898438 71.04296875 C41.1240958 75.36184683 41.05726623 79.68067092 41 84 C40.67 84 40.34 84 40 84 C40 72.12 40 60.24 40 48 C38.68 47.34 37.36 46.68 36 46 C34.57926902 44.75015484 33.20781487 43.44330737 31.87402344 42.10107422 C31.07349548 41.3003952 30.27296753 40.49971619 29.44818115 39.67477417 C28.59387512 38.81014557 27.73956909 37.94551697 26.859375 37.0546875 C25.97719299 36.1696756 25.09501099 35.2846637 24.18609619 34.37283325 C21.84805457 32.02549869 19.51444126 29.67393215 17.18286133 27.32019043 C14.80003474 24.91686073 12.41149652 22.51922233 10.0234375 20.12109375 C5.34368138 15.41928533 0.66968133 10.71181336 -4 6 C-2.68 4.02 -1.36 2.04 0 0 Z " fill="#A2B2BC" transform="translate(176,36)"/>
<path d="M0 0 C3.25575752 1.42594853 5.39254314 3.15741943 7.87890625 5.68359375 C9.00026978 6.81486694 9.00026978 6.81486694 10.14428711 7.96899414 C10.94229736 8.78360107 11.74030762 9.59820801 12.5625 10.4375 C13.39080322 11.27337646 14.21910645 12.10925293 15.07250977 12.97045898 C18.61675668 16.54742716 22.14908989 20.13607998 25.68261719 23.72363281 C28.26352187 26.34063407 30.8503398 28.95168519 33.4375 31.5625 C34.63451538 32.7844104 34.63451538 32.7844104 35.85571289 34.03100586 C36.60328857 34.78518799 37.35086426 35.53937012 38.12109375 36.31640625 C38.7752124 36.98099854 39.42933105 37.64559082 40.10327148 38.33032227 C42.18277409 40.30414884 42.18277409 40.30414884 46 42 C43.69 44.31 41.38 46.62 39 49 C24.66666667 34.66666667 10.33333333 20.33333333 -4 6 C-2.84826645 3.53199953 -1.95216435 1.95216435 0 0 Z " fill="#9DABB6" transform="translate(187,26)"/>
<path d="M0 0 C1.22551323 0.00636726 1.22551323 0.00636726 2.4757843 0.01286316 C5.08445232 0.02965184 7.69234687 0.06730356 10.30078125 0.10546875 C12.0696503 0.12051538 13.83853146 0.13420383 15.60742188 0.14648438 C19.94300621 0.17955589 24.27801261 0.23133885 28.61328125 0.29296875 C28.13468884 1.89730684 27.65538567 3.50143291 27.17578125 5.10546875 C26.90894531 5.99878906 26.64210937 6.89210937 26.3671875 7.8125 C25.80940252 9.6476993 25.2198355 11.47330601 24.61328125 13.29296875 C19.96854143 13.36712942 15.32414626 13.4215749 10.67895508 13.45776367 C9.09881589 13.47284969 7.51871856 13.49332125 5.9387207 13.51928711 C3.6673754 13.55568001 1.39658366 13.57269637 -0.875 13.5859375 C-1.93452629 13.60916328 -1.93452629 13.60916328 -3.01545715 13.63285828 C-5.89508487 13.63384623 -7.89875754 13.61882718 -10.33276367 11.9934082 C-12.12147055 9.10752834 -11.7386674 6.57782285 -11.38671875 3.29296875 C-8.88569688 -0.96298467 -4.36695238 -0.0851768 0 0 Z " fill="#99AAB4" transform="translate(52.38671875,134.70703125)"/>
<path d="M0 0 C2.59765625 1.890625 2.59765625 1.890625 4 4 C4 7.35080213 3.75918705 9.18935271 1.44042969 11.6652832 C-2.00240264 13.54823282 -5.22732171 13.3723599 -9.046875 13.29296875 C-9.81807678 13.28872391 -10.58927856 13.28447906 -11.3838501 13.28010559 C-13.83959315 13.26335383 -16.29450629 13.22570939 -18.75 13.1875 C-20.41795687 13.17244857 -22.08592665 13.15876097 -23.75390625 13.14648438 C-27.83625578 13.11346194 -31.91798732 13.06170484 -36 13 C-35.22019775 12.22640137 -34.44039551 11.45280273 -33.63696289 10.65576172 C-31.97930944 8.98629091 -30.36213116 7.27458053 -28.80859375 5.5078125 C-20.76020184 -2.5803573 -10.80920003 -2.96843069 0 0 Z " fill="#99A9B4" transform="translate(185,162)"/>
<path d="M0 0 C1.25361328 0.00966797 2.50722656 0.01933594 3.79882812 0.02929688 C5.10916016 0.05443359 6.41949219 0.07957031 7.76953125 0.10546875 C9.10480288 0.12051908 10.44009062 0.13420688 11.77539062 0.14648438 C15.04467701 0.18189181 18.31315218 0.23127985 21.58203125 0.29296875 C21.27515755 1.89511306 20.96453981 3.49654055 20.65234375 5.09765625 C20.47977051 5.98952637 20.30719727 6.88139648 20.12939453 7.80029297 C19.54875478 10.44450881 18.72704113 12.83937615 17.58203125 15.29296875 C17.25203125 14.63296875 16.92203125 13.97296875 16.58203125 13.29296875 C15.5604895 13.31653442 15.5604895 13.31653442 14.51831055 13.34057617 C11.43546844 13.40290097 8.35275881 13.44195133 5.26953125 13.48046875 C4.19767578 13.50560547 3.12582031 13.53074219 2.02148438 13.55664062 C0.99345703 13.56630859 -0.03457031 13.57597656 -1.09375 13.5859375 C-2.04161377 13.60164795 -2.98947754 13.6173584 -3.96606445 13.63354492 C-6.41796875 13.29296875 -6.41796875 13.29296875 -8.22729492 11.9934082 C-10.21746316 9.15118516 -9.77611994 6.63571321 -9.41796875 3.29296875 C-6.96692198 -0.42065769 -4.19638236 -0.05696447 0 0 Z " fill="#99A9B4" transform="translate(50.41796875,161.70703125)"/>
<path d="M0 0 C0.33 0 0.66 0 1 0 C1 5.94 1 11.88 1 18 C1.66 18.33 2.32 18.66 3 19 C-0.77068832 19.086985 -4.54111932 19.14038579 -8.3125 19.1875 C-9.38435547 19.21263672 -10.45621094 19.23777344 -11.56054688 19.26367188 C-12.58857422 19.27333984 -13.61660156 19.28300781 -14.67578125 19.29296875 C-15.62364502 19.3086792 -16.57150879 19.32438965 -17.5480957 19.34057617 C-20 19 -20 19 -21.80932617 17.70043945 C-23.79949441 14.85821641 -23.35815119 12.34274446 -23 9 C-21.76831055 7.29956055 -21.76831055 7.29956055 -20 6 C-17.82348633 5.65942383 -17.82348633 5.65942383 -15.33203125 5.70703125 C-14.43935547 5.71669922 -13.54667969 5.72636719 -12.62695312 5.73632812 C-11.23379883 5.7740332 -11.23379883 5.7740332 -9.8125 5.8125 C-8.87212891 5.82603516 -7.93175781 5.83957031 -6.96289062 5.85351562 C-4.64134962 5.88886904 -2.32096347 5.93821326 0 6 C0 4.02 0 2.04 0 0 Z " fill="#98A8B3" transform="translate(64,183)"/>
<path d="M0 0 C4.87445634 0.69635091 8.26145822 2.32140794 11.8125 5.75 C13.46578713 8.88254404 13.20087346 11.51819328 13 15 C7.48599721 17.80076332 3.23160441 19.64912546 -3 19 C-4.61253453 17.38746547 -4.24791423 15.66400957 -4.3125 13.4375 C-4.2889335 7.97792849 -2.75855521 4.65506192 0 0 Z " fill="#2D3236" transform="translate(69,173)"/>
</svg>
